<?xml version="1.0" encoding="utf-8"?>
<!-- Generator: Adobe Illustrator 23.0.2, SVG Export Plug-In . SVG Version: 6.00 Build 0)  -->
<svg version="1.1" id="Layer_1" xmlns="http://www.w3.org/2000/svg" xmlns:xlink="http://www.w3.org/1999/xlink" x="0px" y="0px"
	 viewBox="0 0 512 512" style="enable-background:new 0 0 512 512;" xml:space="preserve">
<style type="text/css">
	.st0{fill:#5A4146;}
	.st1{fill:#694B4B;}
	.st2{fill:#E6AF78;}
	.st3{fill:#D29B6E;}
	.st4{fill:#D5DCED;}
	.st5{fill:#AFB9D2;}
	.st6{fill:#F0C087;}
	.st7{fill:#C7CFE2;}
	.st8{fill:#959CB5;}
</style>
<g>
	<path class="st0" d="M169,119.4v8.7c0,10.7,1.7,21.3,5.1,31.4l19.7,59.2h37.3V82.2h-24.8C185.8,82.2,169,98.9,169,119.4z"/>
	<path class="st1" d="M339.1,145.2l-21,73.5l-99.3-86.9c-13.7,0-24.8-11.1-24.8-24.8l0,0c0-20.6,16.7-37.3,37.3-37.3h86.9
		c13.7,0,24.8,11.1,24.8,24.8v23.3C342.9,127.2,341.6,136.4,339.1,145.2z"/>
	<rect x="218.8" y="256" class="st2" width="74.5" height="55"/>
	<path class="st3" d="M218.8,278.8c11.5,4.7,24.1,7.3,37.3,7.3s25.7-2.6,37.3-7.3V256h-74.5L218.8,278.8L218.8,278.8z"/>
	<path class="st4" d="M353.1,303.3l-59.9-17.1L256,310.9l-37.3-24.7l-59.9,17.1c-16,4.6-27,19.2-27,35.8v90.8
		c0,6.9,5.6,12.4,12.4,12.4h223.5c6.9,0,12.4-5.6,12.4-12.4v-90.8C380.1,322.5,369.1,307.8,353.1,303.3z"/>
	<polygon class="st5" points="268.4,442.3 243.5,442.3 249.8,311 262.2,311 	"/>
	<path class="st6" d="M256,268.5L256,268.5c-41.2,0-74.5-33.4-74.5-74.5v-14.5c0-6.6,2.6-12.9,7.3-17.6l22.5-22.5
		c4.8-4.8,11.3-7.5,18-7.3c39.7,1.3,74.8,9.8,94,28.5c4.7,4.6,7.2,11,7.2,17.6V194C330.5,235.1,297.1,268.5,256,268.5z"/>
	<path class="st2" d="M218.8,182.5c0-14.3,12-25.7,26.3-24.8c25.1,1.6,62.3,5.8,85.1,16.8c-0.7-5.2-3-10.2-6.8-13.9
		c-19.2-18.8-54.3-27.3-94-28.5l0,0l0,0c-6.7-0.2-13.3,2.5-18,7.3l-22.5,22.5c-4.7,4.7-7.3,11-7.3,17.6V194
		c0,34,22.8,62.6,53.9,71.5c-10.4-12.8-16.6-29-16.6-46.7L218.8,182.5L218.8,182.5z"/>
	<path class="st7" d="M330.5,376.1c0-9.9,3.9-19.4,10.9-26.3l32-32c4.3,6.1,6.8,13.5,6.8,21.3v90.8c0,6.9-5.6,12.4-12.4,12.4h-37.3
		V376.1L330.5,376.1z"/>
	<path class="st7" d="M181.6,376.1v66.2h-37.3c-6.9,0-12.4-5.6-12.4-12.4v-90.8c0-7.8,2.5-15.2,6.8-21.3l32,32
		C177.8,356.7,181.6,366.2,181.6,376.1L181.6,376.1z"/>
	<path class="st8" d="M262.2,335.8h-12.4c-3.4,0-6.2-2.8-6.2-6.2V311h24.8v18.6C268.4,333.1,265.6,335.8,262.2,335.8z"/>
	<g>
		<path class="st7" d="M256,310.9L235,327c-3.6,2.8-8.9,1.7-11.1-2.3L205,290.2l7.6-11.6c1.7-2.6,5.3-3,7.5-0.9L256,310.9z"/>
		<path class="st7" d="M256,310.9l21,16.1c3.6,2.8,8.9,1.7,11.1-2.3l18.9-34.5l-7.6-11.6c-1.7-2.6-5.3-3-7.5-0.9L256,310.9z"/>
	</g>
</g>
</svg>
