<?xml version="1.0" encoding="utf-8"?>
<!-- Generator: Adobe Illustrator 23.0.2, SVG Export Plug-In . SVG Version: 6.00 Build 0)  -->
<svg version="1.1" id="Layer_1" xmlns="http://www.w3.org/2000/svg" xmlns:xlink="http://www.w3.org/1999/xlink" x="0px" y="0px"
	 viewBox="0 0 512 512" style="enable-background:new 0 0 512 512;" xml:space="preserve">
<style type="text/css">
	.st0{fill:#5A4146;}
	.st1{fill:#694B4B;}
	.st2{fill:#E6AF78;}
	.st3{fill:#D29B6E;}
	.st4{fill:#D5DCED;}
	.st5{fill:#F0C087;}
	.st6{fill:#C7CFE2;}
</style>
<g>
	<path class="st0" d="M367.4,260.8c-10.7-28.4-19.2-77.2-21-102.6c-3.5-48.4-39.9-87.8-89.2-87.8s-85.7,39.4-89.2,87.8
		c-1.8,25.4-10.3,74.2-21,102.6c-2.4,6.3,0.4,13.2,6.5,16c11.5,5.2,36,15.4,65.5,19.4h76.4c29.4-4,54-14.2,65.5-19.4
		C367.1,274,369.8,267.1,367.4,260.8z"/>
	<path class="st1" d="M360.9,276.8c6.2-2.8,8.9-9.7,6.5-16c-10.7-28.4-19.2-77.2-21-102.6c-3.5-48.4-39.9-87.8-89.2-87.8
		c-0.1,0-0.2,0-0.4,0c-37.8,0.2-51.2,51.7-18.6,70.9c2,1.2,3.2,1.7,3.2,1.7l28.5,153h25.5C324.8,292.2,349.4,282,360.9,276.8z"/>
	<path class="st2" d="M347.9,321.3L307.2,301c-8.5-4.2-13.9-12.9-13.9-22.4V241h-75.2v37.6c0,9.5-5.4,18.2-13.9,22.4l-40.6,20.3
		c-12.7,6.4-20.8,19.4-20.8,33.6V429c0,6.9,5.6,12.5,12.5,12.5h200.6c6.9,0,12.5-5.6,12.5-12.5v-74.1
		C368.6,340.7,360.6,327.7,347.9,321.3z"/>
	<path class="st3" d="M255.8,291.1c13.5,0,26.4-2.8,38.3-7.7c-0.3-1.6-0.7-3.2-0.7-4.8V241h-75.2v37.6c0,1.7-0.4,3.2-0.7,4.8
		C229.4,288.4,242.2,291.1,255.8,291.1z"/>
	<path class="st4" d="M347.9,321.3L319,306.8c-13.4,20.7-36.7,34.4-63.1,34.4c-26.5,0-49.7-13.7-63.1-34.4l-28.9,14.5
		c-12.7,6.4-20.8,19.4-20.8,33.6V429c0,6.9,5.6,12.5,12.5,12.5h200.6c6.9,0,12.5-5.6,12.5-12.5v-74.1
		C368.6,340.7,360.6,327.7,347.9,321.3z"/>
	<path class="st5" d="M255.8,266.1L255.8,266.1c-38.2,0-69.8-28.5-74.6-65.5c-0.7-5.4,1.9-10.6,6.7-13c5.8-2.9,14.2-7.8,22.2-15
		c8.9-8,14.2-16.4,17.2-22.6c2.6-5.3,8.4-8.3,14.1-6.9c44.1,11.3,74.2,34.2,85.1,43.6c2.9,2.5,4.6,6.2,4.3,10.1
		C327.8,235.6,295.4,266.1,255.8,266.1z"/>
	<path class="st2" d="M326.5,186.7c-10.9-9.4-41-32.3-85.1-43.6c-5.7-1.5-11.6,1.6-14.1,6.9c-2.2,4.7-6,10.6-11.5,16.7l0,0
		c-1.7,1.9-3.5,3.9-5.7,5.8c-8,7.2-16.4,12.1-22.2,15c-4.8,2.4-7.4,7.7-6.7,13c4.3,33.2,30.3,59.6,63.2,64.6
		c-15-10.2-26.2-24.3-26.2-49.3v-17.9c2.8-2.1,5.7-4.2,8.6-6.8c7-6.2,13.1-13.4,17.9-21.2c33.8,10.5,56.7,28.1,65.3,35.6
		c2.4,2.1,8.3,7.5,15.2,14c3-7.1,4.9-14.8,5.6-22.9C331.1,192.9,329.4,189.2,326.5,186.7z"/>
	<path class="st6" d="M150.5,332.4c-4.8,6.4-7.6,14.3-7.6,22.6v74.1c0,6.9,5.6,12.5,12.5,12.5H193v-63.2c0-7.6-3.5-14.8-9.4-19.6
		L150.5,332.4z"/>
	<path class="st6" d="M328.5,358.8c-5.9,4.8-9.4,12-9.4,19.6v63.2h37.6c6.9,0,12.5-5.6,12.5-12.5V355c0-8.3-2.8-16.2-7.6-22.6
		L328.5,358.8z"/>
</g>
</svg>
