<?xml version="1.0" encoding="utf-8"?>
<!-- Generator: Adobe Illustrator 23.0.2, SVG Export Plug-In . SVG Version: 6.00 Build 0)  -->
<svg version="1.1" id="Layer_1" xmlns="http://www.w3.org/2000/svg" xmlns:xlink="http://www.w3.org/1999/xlink" x="0px" y="0px"
	 viewBox="0 0 512 512" style="enable-background:new 0 0 512 512;" xml:space="preserve">
<style type="text/css">
	.st0{fill:#FF507D;}
	.st1{fill:#707487;}
	.st2{fill:#5B5D6E;}
	.st3{fill:#D23C69;}
	.st4{fill:#5A4146;}
	.st5{fill:#694B4B;}
	.st6{fill:#E6AF78;}
	.st7{fill:#D29B6E;}
	.st8{fill:#F0C087;}
</style>
<g>
	<path class="st0" d="M374.5,351.2l-69.1-25.1l-49.5,16.5l-49.5-16.5l-69.1,25.1c-13.1,4.7-21.7,17.2-21.7,31v51.2
		c0,4.6,3.7,8.3,8.3,8.3h264.3c4.6,0,8.3-3.7,8.3-8.3v-51.2C396.3,368.5,387.6,356.1,374.5,351.2z"/>
	<polygon class="st1" points="247.2,359.2 239.4,441.8 272.4,441.8 264.5,359.2 	"/>
	<path class="st2" d="M264.6,370.6h-17.3c-3.2,0-5.8-2.6-5.8-5.8v-22.1h28.9v22.1C270.3,368,267.8,370.6,264.6,370.6z"/>
	<path class="st3" d="M387.4,359.9c5.6,6,8.9,14,8.9,22.5v51.2c0,4.6-3.7,8.3-8.3,8.3h-41.3v-27.6c0-8.8,3.5-17.2,9.7-23.4
		L387.4,359.9z"/>
	<path class="st4" d="M346.7,155.9V86.7c0-9.1-7.4-16.5-16.5-16.5h-99.1c-36.5,0-66.1,29.6-66.1,66.1v19.6c0,8.9,1.4,17.7,4.2,26.1
		l2.7,8.2c0.8,2.5,1.3,5.2,1.3,7.8v4.2h165.2V198c0-2.7,0.4-5.3,1.3-7.8l2.7-8.2C345.3,173.6,346.7,164.8,346.7,155.9z"/>
	<path class="st5" d="M206.4,103.7c0,18.5,15,33.5,33.5,33.5h4.6l2.2,65h91.7V198c0-2.7,0.4-5.3,1.3-7.8l2.7-8.2
		c2.8-8.4,4.2-17.2,4.2-26.1V86.7c0-9.1-7.4-16.5-16.5-16.5h-90.3C221.4,70.2,206.4,85.2,206.4,103.7z"/>
	<rect x="206.3" y="268.4" class="st6" width="99.1" height="74.3"/>
	<path class="st7" d="M206.4,296.2c14.6,8.5,31.5,13.4,49.5,13.4c18.1,0,35-4.9,49.5-13.4v-27.9h-99.1L206.4,296.2L206.4,296.2z"/>
	<g>
		<path class="st3" d="M255.9,342.7L229.6,369c-3.5,3.5-9.4,3.1-12.4-0.8l-27.3-36l7.1-15.1c2.1-4.4,7.6-6.1,11.8-3.5L255.9,342.7z"
			/>
		<path class="st3" d="M255.9,342.7l26.3,26.3c3.5,3.5,9.4,3.1,12.4-0.8l27.3-36l-7.1-15.1c-2.1-4.4-7.6-6.1-11.8-3.5L255.9,342.7z"
			/>
	</g>
	<path class="st8" d="M255.9,293.2L255.9,293.2c-45.6,0-82.6-37-82.6-82.6v-9.7c0-4.4,1.7-8.6,4.8-11.7l6.8-6.8
		c3.1-3.1,4.8-7.3,4.8-11.7v-19.8c0-3.8,2.6-7.1,6.3-8c19.5-4.6,80.3-15.5,121.7,14.9c2.7,2,4.2,5.2,4.2,8.6v4.4
		c0,4.4,1.7,8.6,4.8,11.7l6.8,6.8c3.1,3.1,4.8,7.3,4.8,11.7v9.7C338.5,256.2,301.5,293.2,255.9,293.2z"/>
	<path class="st6" d="M317.8,157.8c-29.1-21.4-67.7-22.3-94.9-19.4c-11.5,1.2-20.9,3.1-26.7,4.5c-3.7,0.9-6.3,4.2-6.3,8v19.8
		c0,4.4-1.7,8.6-4.8,11.7l-6.8,6.8c-3.1,3.1-4.8,7.3-4.8,11.7v9.7c0,42.2,31.7,77,72.6,81.9c-14.2-14.8-23.1-34.9-23.1-57.1V175
		c0-8.4,6.2-15.4,14.5-16.4c19.8-2.5,56.1-4,84.6,12.1v-4.4C322,163,320.5,159.6,317.8,157.8z"/>
	<path class="st3" d="M124.4,359.9c-5.6,6-8.9,14-8.9,22.5v51.2c0,4.6,3.7,8.3,8.3,8.3h41.3v-27.6c0-8.8-3.5-17.2-9.7-23.4
		L124.4,359.9z"/>
</g>
</svg>
