<?xml version="1.0" encoding="utf-8"?>
<!-- Generator: Adobe Illustrator 23.0.2, SVG Export Plug-In . SVG Version: 6.00 Build 0)  -->
<svg version="1.1" id="Capa_1" xmlns="http://www.w3.org/2000/svg" xmlns:xlink="http://www.w3.org/1999/xlink" x="0px" y="0px"
	 viewBox="0 0 124 124" style="enable-background:new 0 0 124 124;" xml:space="preserve">
<style type="text/css">
	.st0{fill:#FFFFFF;}
</style>
<g>
	<path class="st0" d="M107.8,6H70.1c-6.6,0-12,5.4-12,12s5.4,12,12,12h37.7c6.6,0,12-5.4,12-12S114.4,6,107.8,6z"/>
	<path class="st0" d="M107.8,50H36.6c-6.6,0-12,5.4-12,12s5.4,12,12,12h71.2c6.6,0,12-5.4,12-12S114.4,50,107.8,50z"/>
	<path class="st0" d="M107.8,94H17.5c-6.6,0-12,5.4-12,12s5.4,12,12,12h90.3c6.6,0,12-5.4,12-12S114.4,94,107.8,94z"/>
</g>
</svg>
